<svg version="1.1" id="Layer_1" xmlns="http://www.w3.org/2000/svg" xmlns:xlink="http://www.w3.org/1999/xlink" x="0px" y="0px"
	 width="100%" viewBox="0 0 85 71" enable-background="new 0 0 85 71" xml:space="preserve">
<path fill="#FEFEFF" opacity="1.000000" stroke="none" 
	d="
M43.000000,1.000000 
	C57.298359,1.000000 71.596718,1.000000 85.947540,1.000000 
	C85.947540,24.573851 85.947540,48.147839 85.947540,71.860916 
	C57.667259,71.860916 29.333651,71.860916 1.000000,71.860916 
	C1.000000,70.324173 1.000000,68.661560 1.308823,66.464714 
	C2.028790,65.331955 2.439934,64.733429 2.878798,64.109467 
	C2.906517,64.084023 2.961315,64.032455 3.365252,64.054939 
	C7.832052,62.700989 11.894916,61.324554 16.366789,60.049034 
	C23.072361,59.055759 29.368925,57.961563 36.054665,56.911110 
	C36.963371,56.969898 37.482906,56.984947 38.335190,57.000008 
	C39.111603,57.000111 39.555267,57.000210 40.308975,56.974754 
	C41.094318,56.599125 41.569618,56.249043 42.474243,55.912186 
	C46.607117,56.332874 50.310654,56.740334 54.242870,57.433102 
	C57.608295,58.499893 60.745049,59.281376 64.125229,60.348427 
	C66.548889,60.937160 68.729111,61.240334 71.043808,61.839737 
	C71.708710,61.661968 72.239143,61.187969 72.831787,60.373791 
	C72.909798,59.346058 72.925583,58.658501 73.222488,58.153061 
	C73.973946,59.333817 74.444290,60.332458 74.925896,61.442604 
	C74.937149,61.554111 74.932045,61.778202 75.011917,62.085472 
	C75.403587,62.661549 75.715393,62.930355 76.146042,63.383499 
	C76.471436,63.788410 76.721840,63.933102 77.232361,64.198410 
	C78.375328,64.696388 79.302048,64.997871 81.347534,65.663322 
	C77.404587,59.796043 74.150673,54.954071 70.892319,49.773056 
	C70.260513,48.890289 69.633148,48.346573 69.009537,47.641655 
	C69.013290,47.480453 69.037987,47.158913 69.020203,46.801392 
	C68.001656,45.297832 67.000893,44.151794 65.995911,42.735733 
	C65.984444,42.285824 65.977188,42.105934 65.920685,41.586212 
	C63.959545,38.480785 62.047642,35.715187 60.077629,32.599976 
	C58.311058,29.831844 56.602589,27.413332 54.915466,24.626137 
	C51.289612,18.176849 47.642418,12.096241 43.961151,5.648808 
	C43.618050,3.854655 43.309025,2.427327 43.000000,1.000000 
z"/>
<path fill="#FEFEFF" opacity="1.000000" stroke="none" 
	d="
M1.000000,64.000000 
	C1.000000,43.091377 1.000000,22.182753 1.000000,1.000000 
	C13.352878,1.000000 25.707781,1.000000 38.526817,1.369589 
	C38.661247,3.161032 38.331539,4.582885 37.952179,6.352527 
	C36.946690,8.519663 35.990849,10.339011 34.688885,12.198475 
	C30.567297,18.825893 26.791830,25.413195 22.679989,32.065136 
	C20.885740,34.582893 19.427862,37.036007 17.688988,39.727013 
	C15.863684,42.616295 14.319376,45.267689 12.458452,47.995491 
	C10.492845,51.379650 8.843853,54.687408 7.040677,58.292835 
	C5.578100,60.404491 4.269707,62.218472 2.961315,64.032455 
	C2.961315,64.032455 2.906517,64.084023 2.573681,64.062546 
	C1.827230,64.027382 1.413615,64.013695 1.000000,64.000000 
z"/>
<path fill="#FBFCFC" opacity="1.000000" stroke="none" 
	d="
M38.001827,6.004739 
	C38.331539,4.582885 38.661247,3.161032 38.995476,1.369589 
	C40.066669,1.000000 41.133339,1.000000 42.600006,1.000000 
	C43.309025,2.427327 43.618050,3.854655 43.705055,5.606555 
	C43.310867,5.913659 43.138702,5.896191 42.782196,5.651831 
	C41.516495,5.602436 40.435135,5.779933 39.013397,5.952721 
	C38.449287,5.966920 38.225555,5.985829 38.001827,6.004739 
z"/>
<path fill="#FEFEFE" opacity="1.000000" stroke="none" 
	d="
M1.000000,64.333328 
	C1.413615,64.013695 1.827230,64.027382 2.545962,64.087990 
	C2.439934,64.733429 2.028790,65.331955 1.308823,65.965240 
	C1.000000,65.555557 1.000000,65.111107 1.000000,64.333328 
z"/>
<path fill="#FEFEFE" opacity="1.000000" stroke="none" 
	d="
M39.353775,5.957430 
	C40.435135,5.779933 41.516495,5.602436 42.766579,6.066924 
	C45.338703,14.131335 47.742092,21.553762 50.150795,29.364895 
	C50.769054,32.168972 51.381996,34.584347 52.004738,37.405102 
	C52.072140,38.885193 52.129749,39.959908 52.093224,41.435917 
	C50.904037,44.842995 49.808987,47.848774 48.469002,50.967457 
	C47.766685,51.625412 47.309303,52.170471 46.528606,52.798603 
	C44.846458,53.603416 43.487633,54.325157 41.794609,55.066666 
	C40.973251,55.724392 40.486092,56.362347 39.998932,57.000305 
	C39.555267,57.000210 39.111603,57.000111 38.312366,56.698158 
	C37.625847,55.927135 37.294895,55.457970 36.900467,54.659210 
	C35.921223,53.815563 35.005455,53.301510 33.995956,52.498489 
	C33.596733,51.488064 33.291245,50.766605 32.884674,49.817036 
	C32.588211,49.302677 32.325443,49.106838 31.826818,48.955780 
	C31.658356,48.910156 31.311279,48.872971 31.303602,48.507965 
	C31.104177,47.445251 30.912430,46.747540 30.719324,45.647865 
	C30.464750,42.498444 30.211535,39.750992 30.231983,36.745239 
	C30.938133,33.987576 31.370619,31.488211 31.917051,28.627621 
	C34.471924,20.830072 36.912849,13.393752 39.353775,5.957430 
z"/>
<path fill="#BAD2DB" opacity="1.000000" stroke="none" 
	d="
M66.000122,43.005756 
	C67.000893,44.151794 68.001656,45.297832 68.849907,46.831963 
	C68.622734,47.305481 68.548080,47.390911 68.473427,47.476341 
	C68.650879,47.585178 68.828331,47.694019 69.005783,47.802856 
	C69.633148,48.346573 70.260513,48.890289 70.527084,49.753593 
	C65.381462,50.678612 70.212196,53.525475 68.665970,55.045341 
	C66.831932,56.768398 65.356865,58.415630 63.881798,60.062862 
	C60.745049,59.281376 57.608295,58.499893 54.244865,57.097733 
	C54.090164,56.036106 54.162140,55.595158 54.663509,55.173599 
	C58.966690,54.807091 62.840473,54.421196 67.495880,53.957439 
	C64.694344,49.134781 62.274513,44.969204 59.763542,40.501892 
	C58.850639,38.577927 58.028881,36.955692 57.214432,35.093086 
	C57.131374,34.540142 57.068260,34.222157 57.063156,33.618435 
	C58.107857,33.208607 59.121796,33.079102 60.135738,32.949593 
	C62.047642,35.715187 63.959545,38.480785 65.739899,41.689217 
	C65.738953,42.423283 65.869537,42.714520 66.000122,43.005756 
z"/>
<path fill="#AACACF" opacity="1.000000" stroke="none" 
	d="
M50.145485,28.976189 
	C47.742092,21.553762 45.338703,14.131335 42.950928,6.293816 
	C43.138702,5.896191 43.310867,5.913659 43.739128,5.973380 
	C47.642418,12.096241 51.289612,18.176849 54.585686,24.685184 
	C52.871540,26.400671 51.508514,27.688431 50.145485,28.976189 
z"/>
<path fill="#99AFB2" opacity="1.000000" stroke="none" 
	d="
M35.665489,56.867371 
	C29.368925,57.961563 23.072361,59.055759 16.377556,59.714912 
	C14.969838,58.147114 13.960364,57.014351 13.063221,55.625507 
	C13.754829,54.915756 14.334106,54.462086 15.354105,54.064224 
	C21.854162,54.339714 27.913500,54.559387 34.323959,54.833588 
	C35.140163,54.962475 35.605236,55.036839 35.989986,55.401215 
	C35.828270,56.083279 35.746880,56.475323 35.665489,56.867371 
z"/>
<path fill="#B5CDD2" opacity="1.000000" stroke="none" 
	d="
M50.150795,29.364895 
	C51.508514,27.688431 52.871540,26.400671 54.564346,25.053864 
	C56.602589,27.413332 58.311058,29.831844 60.077629,32.599976 
	C59.121796,33.079102 58.107857,33.208607 56.719482,33.612755 
	C54.895016,34.924835 53.444977,35.962276 51.994942,36.999722 
	C51.381996,34.584347 50.769054,32.168972 50.150795,29.364895 
z"/>
<path fill="#536065" opacity="1.000000" stroke="none" 
	d="
M12.950890,55.881584 
	C13.960364,57.014351 14.969838,58.147114 15.968546,59.613998 
	C11.894916,61.324554 7.832052,62.700989 3.365251,64.054939 
	C4.269707,62.218472 5.578100,60.404491 7.218848,58.291046 
	C9.351100,57.288254 11.150994,56.584919 12.950890,55.881584 
z"/>
<path fill="#637179" opacity="1.000000" stroke="none" 
	d="
M69.024933,54.969517 
	C70.212196,53.525475 65.381462,50.678612 70.531525,50.092640 
	C74.150673,54.954071 77.404587,59.796043 81.347534,65.663322 
	C79.302048,64.997871 78.375328,64.696388 77.209175,63.923744 
	C76.655556,63.368107 76.341377,63.283634 76.027199,63.199158 
	C75.715393,62.930355 75.403587,62.661549 75.207703,62.118317 
	C75.187302,61.672962 75.050972,61.502029 74.914642,61.331093 
	C74.444290,60.332458 73.973946,59.333817 73.239029,58.179211 
	C72.974457,58.023247 73.036560,58.018318 72.967560,57.753914 
	C72.594162,57.313622 72.289764,57.137737 71.985481,56.988136 
	C71.985588,57.014423 72.038162,57.014675 71.968201,56.751732 
	C71.595856,56.313034 71.293472,56.137283 70.991867,55.985138 
	C70.992645,56.008743 71.038712,55.998295 70.909943,55.677605 
	C70.191383,55.227081 69.601593,55.097252 69.007736,54.981808 
	C69.003677,54.996193 69.024933,54.969517 69.024933,54.969517 
z"/>
<path fill="#6D7F83" opacity="1.000000" stroke="none" 
	d="
M64.125229,60.348427 
	C65.356865,58.415630 66.831932,56.768398 68.665970,55.045341 
	C69.024933,54.969517 69.003677,54.996193 69.107849,55.304878 
	C69.820915,55.741806 70.429817,55.870052 71.038712,55.998295 
	C71.038712,55.998295 70.992645,56.008743 70.978073,56.294334 
	C71.321724,56.724846 71.679947,56.869759 72.038162,57.014675 
	C72.038162,57.014675 71.985588,57.014423 71.993187,57.287071 
	C72.346046,57.712585 72.691299,57.865452 73.036560,58.018318 
	C73.036560,58.018318 72.974457,58.023247 72.957916,57.997097 
	C72.925583,58.658501 72.909798,59.346058 72.613998,60.279678 
	C71.859100,60.865002 71.384224,61.204254 70.909340,61.543510 
	C68.729111,61.240334 66.548889,60.937160 64.125229,60.348427 
z"/>
<path fill="#4E5A5E" opacity="1.000000" stroke="none" 
	d="
M54.234116,55.154205 
	C54.162140,55.595158 54.090164,56.036106 54.016190,56.812424 
	C50.310654,56.740334 46.607117,56.332874 42.470612,55.696751 
	C42.037643,55.468086 42.128803,55.046898 42.128803,55.046898 
	C43.487633,54.325157 44.846458,53.603416 46.625813,53.203899 
	C49.442265,54.068817 51.838192,54.611511 54.234116,55.154205 
z"/>
<path fill="#BAD2DB" opacity="1.000000" stroke="none" 
	d="
M71.043808,61.839737 
	C71.384224,61.204254 71.859100,60.865002 72.551773,60.619858 
	C72.239143,61.187969 71.708710,61.661968 71.043808,61.839737 
z"/>
<path fill="#FBFCFC" opacity="1.000000" stroke="none" 
	d="
M41.794609,55.066666 
	C42.128803,55.046898 42.037643,55.468086 42.041279,55.683525 
	C41.569618,56.249043 41.094318,56.599125 40.308975,56.974754 
	C40.486092,56.362347 40.973251,55.724392 41.794609,55.066666 
z"/>
<path fill="#FBFCFC" opacity="1.000000" stroke="none" 
	d="
M36.054661,56.911110 
	C35.746880,56.475323 35.828270,56.083279 36.214039,55.374866 
	C36.518417,55.058502 36.963943,54.988804 36.963943,54.988804 
	C37.294895,55.457970 37.625847,55.927135 37.979618,56.698151 
	C37.482906,56.984947 36.963371,56.969898 36.054661,56.911110 
z"/>
<path fill="#FEFEFE" opacity="1.000000" stroke="none" 
	d="
M69.009537,47.641655 
	C68.828331,47.694019 68.650879,47.585178 68.473427,47.476341 
	C68.548080,47.390911 68.622734,47.305481 68.867691,47.189484 
	C69.037987,47.158913 69.013290,47.480453 69.009537,47.641655 
z"/>
<path fill="#FBFCFC" opacity="1.000000" stroke="none" 
	d="
M74.925896,61.442604 
	C75.050972,61.502029 75.187302,61.672962 75.127838,61.811050 
	C74.932045,61.778202 74.937149,61.554111 74.925896,61.442604 
z"/>
<path fill="#FBFCFC" opacity="1.000000" stroke="none" 
	d="
M76.146042,63.383495 
	C76.341377,63.283634 76.655556,63.368107 76.992920,63.727242 
	C76.721840,63.933102 76.471436,63.788410 76.146042,63.383495 
z"/>
<path fill="#FEFEFE" opacity="1.000000" stroke="none" 
	d="
M65.995911,42.735733 
	C65.869537,42.714520 65.738953,42.423283 65.789139,42.029045 
	C65.977188,42.105934 65.984444,42.285824 65.995911,42.735733 
z"/>
<path fill="#B1C9CD" opacity="1.000000" stroke="none" 
	d="
M31.803104,28.988844 
	C31.370619,31.488211 30.938133,33.987576 29.902922,36.689217 
	C27.851116,35.828495 26.402037,34.765495 24.902061,33.412270 
	C24.239563,32.748192 23.627962,32.374344 23.016361,32.000496 
	C26.791830,25.413195 30.567297,18.825893 34.630562,12.546280 
	C33.245735,16.646410 31.637295,20.468964 29.877323,24.220427 
	C28.752993,26.616989 28.654018,28.408731 31.803104,28.988844 
z"/>
<path fill="#ABCACF" opacity="1.000000" stroke="none" 
	d="
M31.917049,28.627621 
	C28.654018,28.408731 28.752993,26.616989 29.877323,24.220427 
	C31.637295,20.468964 33.245735,16.646410 34.976681,12.506165 
	C35.990849,10.339011 36.946690,8.519663 37.952179,6.352526 
	C38.225555,5.985829 38.449287,5.966920 39.013397,5.952721 
	C36.912849,13.393752 34.471924,20.830072 31.917049,28.627621 
z"/>
<path fill="#C3DBE7" opacity="1.000000" stroke="none" 
	d="
M13.063221,55.625504 
	C11.150994,56.584919 9.351100,57.288254 7.373033,57.993378 
	C8.843853,54.687408 10.492845,51.379650 12.696907,48.310722 
	C14.273890,48.750854 15.295802,48.952152 16.458874,49.512539 
	C16.037815,51.250557 15.475600,52.629486 14.913383,54.008415 
	C14.334106,54.462086 13.754829,54.915756 13.063221,55.625504 
z"/>
<path fill="#C3DBE7" opacity="1.000000" stroke="none" 
	d="
M22.679989,32.065136 
	C23.627962,32.374344 24.239563,32.748192 24.653187,33.660748 
	C23.578096,36.092583 22.700985,37.985706 21.575672,40.044815 
	C21.174387,40.783623 21.021305,41.356453 20.585663,42.102631 
	C19.557682,43.561493 18.812260,44.847000 17.994377,45.758751 
	C17.937941,43.419701 17.953962,41.454414 17.969986,39.489124 
	C19.427862,37.036007 20.885740,34.582893 22.679989,32.065136 
z"/>
<path fill="#8FA6B5" opacity="1.000000" stroke="none" 
	d="
M17.688988,39.727013 
	C17.953962,41.454414 17.937941,43.419701 17.968285,45.728172 
	C18.014650,46.071358 18.082909,46.028881 17.760208,46.110565 
	C17.311422,46.815628 17.185341,47.439007 17.033918,48.029854 
	C17.008579,47.997322 17.078396,48.041405 16.791050,48.063560 
	C16.356190,48.425617 16.208677,48.765522 16.132393,49.079552 
	C16.203621,49.053680 16.317715,49.153454 16.317715,49.153454 
	C15.295802,48.952152 14.273890,48.750854 13.013523,48.234322 
	C14.319376,45.267689 15.863684,42.616295 17.688988,39.727013 
z"/>
<path fill="#343C41" opacity="1.000000" stroke="none" 
	d="
M18.040745,46.101933 
	C18.812260,44.847000 19.557682,43.561493 20.906895,42.239044 
	C24.777550,44.425728 28.044415,46.649349 31.311279,48.872971 
	C31.311279,48.872971 31.658356,48.910156 31.856133,49.230804 
	C32.364525,49.716015 32.675140,49.880581 32.985756,50.045147 
	C33.291245,50.766605 33.596733,51.488064 33.965424,52.829948 
	C34.010021,53.893272 33.991428,54.336166 33.972836,54.779064 
	C27.913500,54.559387 21.854162,54.339714 15.354105,54.064228 
	C15.475600,52.629486 16.037815,51.250557 16.458874,49.512539 
	C16.317715,49.153454 16.203621,49.053680 16.469521,49.195480 
	C16.849745,48.905323 16.964071,48.473366 17.078396,48.041405 
	C17.078396,48.041405 17.008579,47.997322 17.345444,47.931370 
	C17.815844,47.253239 17.949377,46.641060 18.082909,46.028881 
	C18.082909,46.028881 18.014650,46.071358 18.040745,46.101933 
z"/>
<path fill="#353E43" opacity="1.000000" stroke="none" 
	d="
M54.663509,55.173599 
	C51.838192,54.611511 49.442265,54.068817 46.949131,53.120823 
	C47.309303,52.170471 47.766685,51.625412 48.833237,50.980118 
	C52.913170,47.521130 56.383926,44.162376 59.854683,40.803627 
	C62.274513,44.969204 64.694344,49.134781 67.495880,53.957439 
	C62.840473,54.421196 58.966690,54.807091 54.663509,55.173599 
z"/>
<path fill="#5B686C" opacity="1.000000" stroke="none" 
	d="
M21.823875,39.878834 
	C22.700985,37.985706 23.578096,36.092583 24.704082,33.950977 
	C26.402037,34.765495 27.851116,35.828495 29.629257,36.947514 
	C30.211535,39.750992 30.464750,42.498444 30.392460,45.597542 
	C27.319260,43.925735 24.571568,41.902287 21.823875,39.878834 
z"/>
<path fill="#4E5A5E" opacity="1.000000" stroke="none" 
	d="
M59.763538,40.501892 
	C56.383926,44.162376 52.913170,47.521130 49.078175,50.867218 
	C49.808987,47.848774 50.904037,44.842995 52.435059,41.390617 
	C54.316395,39.073833 55.761757,37.203648 57.207123,35.333462 
	C58.028881,36.955692 58.850639,38.577927 59.763538,40.501892 
z"/>
<path fill="#3E484D" opacity="1.000000" stroke="none" 
	d="
M21.575672,40.044815 
	C24.571568,41.902287 27.319260,43.925735 30.393818,45.999512 
	C30.912430,46.747540 31.104177,47.445251 31.303602,48.507965 
	C28.044415,46.649349 24.777550,44.425728 21.189453,42.065693 
	C21.021305,41.356453 21.174387,40.783623 21.575672,40.044815 
z"/>
<path fill="#647377" opacity="1.000000" stroke="none" 
	d="
M57.214432,35.093086 
	C55.761757,37.203648 54.316395,39.073833 52.529194,40.989319 
	C52.129749,39.959908 52.072140,38.885193 52.004734,37.405102 
	C53.444977,35.962276 54.895016,34.924835 56.688728,33.893074 
	C57.068260,34.222157 57.131374,34.540142 57.214432,35.093086 
z"/>
<path fill="#3E484D" opacity="1.000000" stroke="none" 
	d="
M34.323959,54.833588 
	C33.991428,54.336166 34.010021,53.893272 34.059151,53.118916 
	C35.005455,53.301510 35.921223,53.815563 36.900467,54.659210 
	C36.963943,54.988804 36.518417,55.058502 36.294365,55.084854 
	C35.605236,55.036839 35.140163,54.962475 34.323959,54.833588 
z"/>
<path fill="#FBFCFC" opacity="1.000000" stroke="none" 
	d="
M32.884674,49.817036 
	C32.675140,49.880581 32.364525,49.716015 32.024597,49.276428 
	C32.325443,49.106838 32.588211,49.302677 32.884674,49.817036 
z"/>
<path fill="#BAD2DB" opacity="1.000000" stroke="none" 
	d="
M70.909943,55.677605 
	C70.429817,55.870052 69.820915,55.741806 69.111908,55.290489 
	C69.601593,55.097252 70.191383,55.227081 70.909943,55.677605 
z"/>
<path fill="#BAD2DB" opacity="1.000000" stroke="none" 
	d="
M71.968201,56.751732 
	C71.679947,56.869759 71.321724,56.724846 70.977295,56.270729 
	C71.293472,56.137283 71.595856,56.313034 71.968201,56.751732 
z"/>
<path fill="#BAD2DB" opacity="1.000000" stroke="none" 
	d="
M72.967560,57.753914 
	C72.691299,57.865452 72.346046,57.712585 71.993080,57.260788 
	C72.289764,57.137737 72.594162,57.313622 72.967560,57.753914 
z"/>
<path fill="#C3DBE7" opacity="1.000000" stroke="none" 
	d="
M17.760208,46.110565 
	C17.949377,46.641060 17.815844,47.253239 17.370785,47.963905 
	C17.185341,47.439007 17.311422,46.815628 17.760208,46.110565 
z"/>
<path fill="#C3DBE7" opacity="1.000000" stroke="none" 
	d="
M16.791050,48.063560 
	C16.964071,48.473366 16.849745,48.905323 16.398291,49.221352 
	C16.208677,48.765522 16.356190,48.425617 16.791050,48.063560 
z"/>
</svg>