<?xml version="1.0" encoding="utf-8"?>
<!-- Generator: Adobe Illustrator 26.5.0, SVG Export Plug-In . SVG Version: 6.00 Build 0)  -->
<svg version="1.1" id="Camada_1" xmlns="http://www.w3.org/2000/svg" xmlns:xlink="http://www.w3.org/1999/xlink" x="0px" y="0px"
	 viewBox="0 0 424.7 199.7" style="enable-background:new 0 0 424.7 199.7;" xml:space="preserve">
<style type="text/css">
	.st0{fill:#010202;}
</style>
<g id="_x30_lG9ic.tif_00000108993516601076211140000003571227315827535237_">
	<g>
		<g>
			<path class="st0" d="M112.8,25.1c6.3,0.3,12.3,0.2,18.3,1c6.4,0.8,10.2,5.6,10.6,12.8c0.4,6.7,0.1,13.4,0.2,20.1
				c0,0.6-0.1,1.1-0.1,1.7c0,25.1,0,50.2,0,75.2c0,4.4,1.1,8.4,4.3,11.6c4.3,4.3,9.6,5.2,15.2,3.6c5.5-1.5,8.4-5.6,9.5-11
				c0.4-1.8,0.5-3.7,0.5-5.5c0.1-31.1,0-62.1,0.1-93.2c0-4.9,1-9.6,5.2-12.9c2.8-2.2,6.2-2.9,9.7-3c3.3-0.1,6.5,0.1,9.8-0.1
				c1.8-0.1,2.3,0.5,2.3,2.3c-0.1,19.5,0,38.9,0,58.4c0,2.3,0,4.6,0,7c0.1,0.1,0.3,0.1,0.4,0.2c0.4-0.6,0.9-1.2,1.2-1.9
				c8.5-17.7,17-35.4,25.5-53.1c5.5-11.5,15.4-16.6,28-14.4c4.1,0.7,8.1,1.8,12.1,3.8c-2.4,4.6-4.8,9.2-7.1,13.7
				c-6.8,13-13.6,25.9-20.4,38.9c-1.8,3.5-3.6,7-5.4,10.5c-0.6,1.1-0.6,2-0.1,3.1c11.1,24.1,22.1,48.2,33.1,72.3
				c1.1,2.4,2.2,4.8,3.3,7.3c-0.4,0.1-0.7,0.3-0.9,0.3c-7.2-0.1-14.4-0.1-21.6-0.3c-8.1-0.3-13.1-4.8-15.9-12
				c-7.3-19.2-14.5-38.5-21.8-57.7c-0.5-1.3-1.3-2.5-2.1-3.7c-1.3-1.8-5.8-2.9-7.6-1.8c-0.4,0.2-0.6,1.1-0.6,1.7
				c-0.1,5-0.1,10-0.1,15c0,7.6,0,15.2,0,22.7c0,17.9-11.3,32.2-28.9,36.3c-11.9,2.8-23.5,2.4-34.8-2.3
				c-13.6-5.7-22.1-18.5-22.1-33.2c0-36.5,0-72.9,0-109.4C112.6,28,112.7,26.8,112.8,25.1z"/>
			<path class="st0" d="M326.9,54.1c-5.1-3.2-10.4-5.4-16.1-6.8c-4.9-1.2-9.7-1.6-14.5,0.6c-5.6,2.6-7.9,7.3-8.3,13.2
				c-0.5,7.6,2.6,13.7,7.8,18.8c5.4,5.2,11.2,10,16.6,15.2c9.7,9.3,17.3,19.9,19.5,33.4c3.5,21.2-6.6,41.6-30.8,46.7
				c-7.7,1.6-15.3,1.3-23,0.4c-0.7-0.1-1.5-0.7-1.8-1.3c-4.6-9.7-9-19.4-13.5-29.1c-0.1-0.2-0.1-0.4-0.1-0.6
				c3.5,1.5,6.9,3.1,10.4,4.4c4.1,1.5,8.4,2.3,12.8,2.3c8.9-0.1,15.6-7.3,15.5-16.1c-0.1-7.2-3.2-12.9-8.2-17.8
				c-5.6-5.5-11.4-10.7-17-16.1c-7.3-7.1-13.6-15.1-16-25.2c-3-12.9-1.9-25.4,5.8-36.7c7.1-10.5,17.5-15.1,29.9-15.8
				c11-0.6,21.2,2.5,31,7.1c3.4,1.6,5.1,5.2,4.2,9c-1.1,4.6-2.5,9.1-3.7,13.7C327.3,53.5,327.1,53.7,326.9,54.1z"/>
			<path class="st0" d="M48.9,173.8c0-1.1,0-1.8,0-2.5c0-11.8,0-23.5,0-35.3c0-33.8,0.1-67.5,0.2-101.3c0-2.7,0.1-5.4,0.3-8.1
				c0-0.4,0.6-1.2,0.9-1.2c4.9,0,9.9-0.5,14.8,0.2c8.5,1.2,13.5,7,14.6,15.7c0.1,0.9,0.2,1.8,0.2,2.8c0,12.4,0,24.8,0,37.1
				c0,22.3-0.1,44.6-0.2,66.9c0,2.6,0,2.6,2.7,2.6c5.1,0.1,10.3-0.3,15.3,0.3c9.3,1,15.2,6.7,17.3,16c0.4,1.6,0.5,3.3,0.7,4.9
				c0.3,1.5-0.2,1.9-1.7,1.9c-11-0.1-22.1,0-33.1,0c-9.9,0-19.7,0-29.6,0C50.5,173.8,49.9,173.8,48.9,173.8z"/>
		</g>
	</g>
</g>
<g>
	<path class="st0" d="M386.2,143.7h-28.3l18.5,10v0.2l-18.3,9.9h28.1v7.7h-43.4v-8.4l18.3-9.4l-18.3-9.4v-8.4h43.4V143.7z"/>
	<path class="st0" d="M386.9,112.7c0,11-10,18.9-22.3,18.9h-0.1c-12.3,0-22.4-8-22.4-19s10-18.9,22.3-18.9h0.1
		C376.8,93.7,386.9,101.7,386.9,112.7z M364.5,101.9c-7.4,0-13.6,4.5-13.6,10.8s6.1,10.7,13.5,10.7h0.1c7.4,0,13.6-4.5,13.6-10.8
		c0-6.3-6.1-10.7-13.5-10.7H364.5z"/>
	<path class="st0" d="M386.5,73.3v6.9l-43.7,14.4V86l30.6-9.3l-30.6-9.3v-8.4L386.5,73.3z"/>
	<path class="st0" d="M386.2,56h-43.4V29.1h8.5v19.1h8.8V31.4h8.5v16.8h9.1V28.8h8.5V56z"/>
</g>
</svg>
